<svg width="634" height="399" viewBox="0 0 634 399" fill="none" xmlns="http://www.w3.org/2000/svg">
<g clip-path="url(#clip0_504_184)">
<rect width="634" height="399" fill="#24125A"/>
<path d="M482.744 244.26C474.344 244.26 466.7 242.37 459.812 238.59C458.384 237.582 457.67 236.196 457.67 234.432C457.67 233.088 458.132 231.912 459.056 230.904C459.98 229.896 461.156 229.392 462.584 229.392C463.34 229.392 464.096 229.56 464.852 229.896C467.54 231.072 470.228 231.996 472.916 232.668C475.604 233.34 478.628 233.676 481.988 233.676C491.312 233.676 495.974 230.694 495.974 224.73C495.974 222.798 494.882 221.328 492.698 220.32C490.598 219.312 487.112 218.178 482.24 216.918C477.284 215.742 473.168 214.524 469.892 213.264C466.7 212.004 463.928 210.114 461.576 207.594C459.308 204.99 458.174 201.588 458.174 197.388C458.174 191.508 460.274 186.72 464.474 183.024C468.758 179.328 474.848 177.48 482.744 177.48C489.212 177.48 495.302 178.53 501.014 180.63C502.19 180.966 503.072 181.596 503.66 182.52C504.332 183.444 504.668 184.41 504.668 185.418C504.668 186.762 504.164 187.938 503.156 188.946C502.232 189.954 501.056 190.458 499.628 190.458C499.208 190.458 498.662 190.374 497.99 190.206C493.118 188.694 488.33 187.938 483.626 187.938C479.09 187.938 475.52 188.778 472.916 190.458C470.396 192.054 469.136 194.154 469.136 196.758C469.136 199.278 470.312 201.126 472.664 202.302C475.016 203.478 478.67 204.612 483.626 205.704C488.582 206.964 492.614 208.224 495.722 209.484C498.83 210.66 501.476 212.55 503.66 215.154C505.928 217.758 507.062 221.244 507.062 225.612C507.062 230.988 504.92 235.44 500.636 238.968C496.436 242.496 490.472 244.26 482.744 244.26Z" fill="#F78223"/>
<path d="M133.744 245.26C125.344 245.26 117.7 243.37 110.812 239.59C109.384 238.582 108.67 237.196 108.67 235.432C108.67 234.088 109.132 232.912 110.056 231.904C110.98 230.896 112.156 230.392 113.584 230.392C114.34 230.392 115.096 230.56 115.852 230.896C118.54 232.072 121.228 232.996 123.916 233.668C126.604 234.34 129.628 234.676 132.988 234.676C142.312 234.676 146.974 231.694 146.974 225.73C146.974 223.798 145.882 222.328 143.698 221.32C141.598 220.312 138.112 219.178 133.24 217.918C128.284 216.742 124.168 215.524 120.892 214.264C117.7 213.004 114.928 211.114 112.576 208.594C110.308 205.99 109.174 202.588 109.174 198.388C109.174 192.508 111.274 187.72 115.474 184.024C119.758 180.328 125.848 178.48 133.744 178.48C140.212 178.48 146.302 179.53 152.014 181.63C153.19 181.966 154.072 182.596 154.66 183.52C155.332 184.444 155.668 185.41 155.668 186.418C155.668 187.762 155.164 188.938 154.156 189.946C153.232 190.954 152.056 191.458 150.628 191.458C150.208 191.458 149.662 191.374 148.99 191.206C144.118 189.694 139.33 188.938 134.626 188.938C130.09 188.938 126.52 189.778 123.916 191.458C121.396 193.054 120.136 195.154 120.136 197.758C120.136 200.278 121.312 202.126 123.664 203.302C126.016 204.478 129.67 205.612 134.626 206.704C139.582 207.964 143.614 209.224 146.722 210.484C149.83 211.66 152.476 213.55 154.66 216.154C156.928 218.758 158.062 222.244 158.062 226.612C158.062 231.988 155.92 236.44 151.636 239.968C147.436 243.496 141.472 245.26 133.744 245.26Z" fill="#F78223"/>
<path d="M236.878 244.26C232.258 244.26 228.226 243.168 224.782 240.984C221.422 238.8 218.818 235.818 216.97 232.038C215.206 228.258 214.324 224.1 214.324 219.564V183.78C214.324 182.184 214.87 180.84 215.962 179.748C217.138 178.656 218.524 178.11 220.12 178.11C221.716 178.11 223.06 178.656 224.152 179.748C225.244 180.84 225.79 182.184 225.79 183.78V218.304C225.79 228.552 230.41 233.676 239.65 233.676C243.85 233.676 247.588 232.584 250.864 230.4C254.224 228.216 257.374 225.276 260.314 221.58V183.78C260.314 182.184 260.86 180.84 261.952 179.748C263.128 178.656 264.514 178.11 266.11 178.11C267.706 178.11 269.05 178.656 270.142 179.748C271.234 180.84 271.78 182.184 271.78 183.78V237.834C271.78 239.43 271.234 240.816 270.142 241.992C269.05 243.084 267.706 243.63 266.11 243.63C264.514 243.63 263.128 243.084 261.952 241.992C260.86 240.816 260.314 239.43 260.314 237.834V232.668C257.122 236.196 253.678 239.01 249.982 241.11C246.286 243.21 241.918 244.26 236.878 244.26Z" fill="#F78223"/>
<path d="M192.13 244.26C179.866 244.26 173.734 238.716 173.734 227.628V188.568H164.788C164.116 188.568 163.528 188.358 163.024 187.938C162.604 187.434 162.394 186.846 162.394 186.174C162.394 185.334 162.772 184.62 163.528 184.032L180.664 167.274C181.42 166.518 182.134 166.14 182.806 166.14C183.478 166.14 184.024 166.392 184.444 166.896C184.948 167.4 185.2 167.988 185.2 168.66V178.74H199.438C200.866 178.74 202.042 179.202 202.966 180.126C203.89 181.05 204.352 182.226 204.352 183.654C204.352 184.998 203.89 186.174 202.966 187.182C202.042 188.106 200.866 188.568 199.438 188.568H185.2V226.62C185.2 229.896 185.956 231.996 187.468 232.92C189.064 233.76 191.038 234.18 193.39 234.18C195.07 234.18 196.75 233.928 198.43 233.424C198.766 233.34 199.102 233.256 199.438 233.172C199.858 233.088 200.362 233.046 200.95 233.046C202.126 233.046 203.176 233.508 204.1 234.432C205.024 235.272 205.486 236.322 205.486 237.582C205.486 239.514 204.52 240.984 202.588 241.992C199.312 243.504 195.826 244.26 192.13 244.26Z" fill="#F78223"/>
<path d="M310.54 245.26C305.332 245.26 300.376 243.958 295.672 241.354C291.052 238.666 287.272 234.802 284.332 229.762C281.476 224.638 280.048 218.674 280.048 211.87C280.048 205.066 281.476 199.144 284.332 194.104C287.272 188.98 291.052 185.116 295.672 182.512C300.376 179.824 305.332 178.48 310.54 178.48C318.772 178.48 325.954 181.672 332.086 188.056V157.186C332.086 155.506 332.632 154.12 333.724 153.028C334.9 151.936 336.286 151.39 337.882 151.39C339.478 151.39 340.822 151.978 341.914 153.154C343.006 154.246 343.552 155.59 343.552 157.186V238.96C343.552 240.556 343.006 241.9 341.914 242.992C340.822 244.084 339.478 244.63 337.882 244.63C336.286 244.63 334.9 244.084 333.724 242.992C332.632 241.9 332.086 240.556 332.086 238.96V235.684C325.954 242.068 318.772 245.26 310.54 245.26ZM312.178 234.55C316.042 234.55 319.654 233.71 323.014 232.03C326.458 230.266 329.482 227.956 332.086 225.1V198.64C329.482 195.784 326.458 193.516 323.014 191.836C319.654 190.072 316.042 189.19 312.178 189.19C305.962 189.19 300.964 191.164 297.184 195.112C293.404 199.06 291.514 204.646 291.514 211.87C291.514 219.094 293.404 224.68 297.184 228.628C300.964 232.576 305.962 234.55 312.178 234.55Z" fill="#F78223"/>
<path d="M367.796 151.137C367.016 155.124 363.522 158 359.46 158V158C355.315 158 351.775 155.008 351.084 150.92L350.38 146.748C350.128 145.26 350.128 143.74 350.38 142.252L352.28 131H366.453L368.556 142.547C368.85 144.156 368.839 145.806 368.525 147.412L367.796 151.137Z" fill="#24125A"/>
<path d="M354 153.5C354 150.462 356.462 148 359.5 148V148C362.538 148 365 150.462 365 153.5V165H354V153.5Z" fill="#6048AC"/>
<path d="M401.43 260.7C393.383 260.7 385.62 259 378.14 255.6C370.66 252.2 364.54 247.043 359.78 240.13C355.02 233.103 352.64 224.547 352.64 214.46V147.31C352.64 145.157 353.377 143.343 354.85 141.87C356.323 140.283 358.137 139.49 360.29 139.49C362.443 139.49 364.257 140.283 365.73 141.87C367.317 143.343 368.11 145.157 368.11 147.31V214.97C368.11 221.77 369.64 227.55 372.7 232.31C375.873 237.07 380.01 240.64 385.11 243.02C390.21 245.4 395.65 246.59 401.43 246.59C407.21 246.59 412.65 245.4 417.75 243.02C422.85 240.64 426.93 237.07 429.99 232.31C433.163 227.55 434.75 221.77 434.75 214.97V147.31C434.75 145.157 435.487 143.343 436.96 141.87C438.433 140.283 440.247 139.49 442.4 139.49C444.553 139.49 446.367 140.283 447.84 141.87C449.427 143.343 450.22 145.157 450.22 147.31V214.46C450.22 224.547 447.84 233.103 443.08 240.13C438.32 247.043 432.2 252.2 424.72 255.6C417.24 259 409.477 260.7 401.43 260.7Z" fill="#6048AC"/>
<path d="M436 150.3C436 146.821 438.821 144 442.3 144V144C445.779 144 448.6 146.821 448.6 150.3V160H436V150.3Z" fill="#6048AC"/>
<rect x="350" y="108" width="21" height="48" fill="#24125A"/>
<path d="M452 147C452 151.971 447.747 156 442.5 156C437.253 156 433 151.971 433 147C433 142.029 437.253 138 442.5 138C447.747 138 452 142.029 452 147ZM438.361 147C438.361 149.166 440.214 150.921 442.5 150.921C444.786 150.921 446.639 149.166 446.639 147C446.639 144.834 444.786 143.079 442.5 143.079C440.214 143.079 438.361 144.834 438.361 147Z" fill="#24125A"/>
<path d="M408.333 144C414.579 150.226 420.432 149.995 427.267 145.579" stroke="#24125A" stroke-width="2.5"/>
<path d="M380.379 208.829C400.5 221.5 420.999 213.755 422.43 189" stroke="#60D491" stroke-width="3.5" stroke-linecap="round"/>
<path d="M402.127 185.257C404.54 189.479 410.572 187.67 408.762 182.241" stroke="#60D491" stroke-width="2" stroke-linecap="round" stroke-linejoin="round"/>
<path d="M382.826 192.133C385.238 196.355 391.27 194.546 389.46 189.117" stroke="#60D491" stroke-width="2" stroke-linecap="round" stroke-linejoin="round"/>
<path d="M360.407 141.111L364.532 148.778L368.537 155.351C368.74 155.684 368.5 156.111 368.11 156.111H352.871C352.485 156.111 352.245 155.692 352.439 155.359L356.283 148.778L360.407 141.111Z" fill="#D9D9D9"/>
<path d="M356.237 149.16C356.283 149.463 356.183 149.581 356.397 149.794C356.552 149.95 356.707 150.031 356.925 150.015C357.058 150.005 357.241 149.764 357.309 149.674C357.385 149.573 357.508 149.443 357.563 149.334" stroke="#6048AC" stroke-linecap="round"/>
<path d="M357.563 149.333C357.579 149.58 357.699 149.817 357.879 149.979C357.996 150.084 358.159 150.063 358.304 150.063C358.475 150.063 358.65 149.948 358.779 149.838C358.902 149.735 358.97 149.573 359.095 149.479" stroke="#6048AC" stroke-linecap="round"/>
<path d="M359.095 149.479C359.159 149.518 359.201 149.64 359.255 149.698C359.337 149.787 359.422 149.875 359.503 149.966C359.694 150.177 359.898 150.22 360.177 150.208C360.388 150.198 360.664 150.087 360.796 149.914C360.899 149.78 360.958 149.584 361.089 149.479" stroke="#6048AC" stroke-linecap="round"/>
<path d="M360.997 149.16C361.171 149.462 361.298 149.816 361.472 150.12C361.721 150.555 362.086 150.585 362.451 150.447C362.796 150.317 362.885 149.798 363.037 149.402" stroke="#6048AC" stroke-linecap="round"/>
<path d="M362.913 149.626C362.95 149.843 363.2 150.017 363.386 150.098C363.592 150.189 363.82 150.184 363.997 150.034C364.147 149.907 364.244 149.671 364.361 149.513C364.449 149.394 364.397 149.316 364.397 149.16" stroke="#6048AC" stroke-linecap="round"/>
<path d="M360.317 141L364.804 149.16H355.897L360.317 141Z" fill="#6048AC"/>
<path d="M356.431 148.674C356.514 148.176 356.956 147.817 357.461 147.839L363.566 148.104C364.031 148.124 364.397 148.507 364.397 148.972V148.972C364.397 149.451 364.008 149.84 363.528 149.84H357.417C356.799 149.84 356.33 149.284 356.431 148.674V148.674Z" fill="#6048AC"/>
<path d="M361.704 149.87C361.719 149.494 362.063 149.217 362.434 149.282L362.527 149.298C362.821 149.349 363.037 149.605 363.037 149.905V149.905C363.037 150.245 362.761 150.52 362.421 150.52H362.327C361.972 150.52 361.689 150.225 361.704 149.87V149.87Z" fill="#6048AC"/>
<path d="M359.664 149.87C359.68 149.494 360.023 149.217 360.394 149.282L360.487 149.298C360.782 149.349 360.997 149.605 360.997 149.905V149.905C360.997 150.245 360.721 150.52 360.381 150.52H360.287C359.933 150.52 359.649 150.225 359.664 149.87V149.87Z" fill="#6048AC"/>
</g>
<defs>
<clipPath id="clip0_504_184">
<rect width="634" height="399" fill="white"/>
</clipPath>
</defs>
</svg>
