<svg width="37" height="43" viewBox="0 0 37 43" fill="none" xmlns="http://www.w3.org/2000/svg">
<mask id="mask0_430_9" style="mask-type:luminance" maskUnits="userSpaceOnUse" x="0" y="0" width="37" height="43">
<path d="M0.447266 0.900024H36.4973V42.1H0.447266V0.900024Z" fill="white"/>
</mask>
<g mask="url(#mask0_430_9)">
<path d="M3.71965 37.8909L0.436523 1.01587H36.5069L33.2216 37.8856L18.4487 41.9852L3.71965 37.8909Z" fill="#E44D26"/>
</g>
<path d="M30.4084 35.537L33.2162 4.03186H18.4722V38.8523L30.4084 35.537Z" fill="#F16529"/>
<path d="M18.457 8.5531H7.14844L8.3662 22.2296H18.472V17.7072H12.4969L12.0839 13.0765H18.472V8.5531H18.457ZM18.472 29.4374L18.4527 29.4428L13.4239 28.0834L13.1042 24.4763H8.56791L9.20093 31.5768L18.4516 34.1379L18.472 34.1314V29.4374Z" fill="#EBEBEB"/>
<path d="M18.4573 22.2296H24.0172L23.5065 28.0931L18.4691 29.4546V34.1593L27.7273 31.5897L28.9676 17.7051H18.4723L18.4573 22.2296ZM29.6607 9.76764L29.768 8.5531H18.4541V13.0754H29.3614L29.4504 12.0594L29.6607 9.76764Z" fill="white"/>
</svg>
