<svg width="50" height="48" viewBox="0 0 50 48" fill="none" xmlns="http://www.w3.org/2000/svg">
<path d="M0 16.9661C0 11.0537 0 8.0975 1.21104 5.83928C2.2763 3.85291 3.97609 2.23793 6.06677 1.22581C8.44357 0.0751953 11.555 0.0751953 17.7779 0.0751953H32.2221C38.445 0.0751953 41.5564 0.0751953 43.9332 1.22581C46.0239 2.23793 47.7238 3.85291 48.7889 5.83928C50 8.0975 50 11.0537 50 16.9661V30.6897C50 36.6021 50 39.5583 48.7889 41.8165C47.7238 43.8029 46.0239 45.4179 43.9332 46.4299C41.5564 47.5806 38.445 47.5806 32.2221 47.5806H17.7779C11.555 47.5806 8.44357 47.5806 6.06677 46.4299C3.97609 45.4179 2.2763 43.8029 1.21104 41.8165C0 39.5583 0 36.6021 0 30.6897V16.9661Z" fill="white"/>
<path d="M35.5228 11.311L25.6067 19.133L15.4639 11.311V11.3131L15.4761 11.3237V22.2765L25.4924 30.2675L35.5228 22.5851V11.311Z" fill="#EA4335"/>
<path d="M38.1256 9.40806L35.5215 11.3107V22.5848L43.7158 16.2259V12.3952C43.7158 12.3952 42.7212 6.92408 38.1256 9.40806Z" fill="#FBBC05"/>
<path d="M35.5215 22.585V37.2077H41.802C41.802 37.2077 43.5892 37.0217 43.7178 34.9626V16.2261L35.5215 22.585Z" fill="#34A853"/>
<path d="M15.4766 37.2203V22.2762L15.4639 22.2656L15.4766 37.2203Z" fill="#C5221F"/>
<path d="M15.4634 11.3125L12.8735 9.42046C8.27796 6.93647 7.28125 12.4055 7.28125 12.4055V16.236L15.4634 22.2653V11.3125Z" fill="#C5221F"/>
<path d="M15.4639 11.3135V22.2663L15.4766 22.2769V11.3241L15.4639 11.3135Z" fill="#C5221F"/>
<path d="M7.28125 16.2393V34.9758C7.40789 37.0371 9.19708 37.2211 9.19708 37.2211H15.4776L15.4634 22.2664L7.28125 16.2393Z" fill="#4285F4"/>
</svg>
