<svg width="50" height="51" viewBox="0 0 50 51" fill="none" xmlns="http://www.w3.org/2000/svg">
<path d="M39 0.559082H11C5.20101 0.559082 0.5 5.31064 0.5 11.172V39.4731C0.5 45.3344 5.20101 50.086 11 50.086H39C44.799 50.086 49.5 45.3344 49.5 39.4731V11.172C49.5 5.31064 44.799 0.559082 39 0.559082Z" fill="url(#paint0_radial_3596_1225)"/>
<path d="M39 0.559082H11C5.20101 0.559082 0.5 5.31064 0.5 11.172V39.4731C0.5 45.3344 5.20101 50.086 11 50.086H39C44.799 50.086 49.5 45.3344 49.5 39.4731V11.172C49.5 5.31064 44.799 0.559082 39 0.559082Z" fill="url(#paint1_radial_3596_1225)"/>
<path d="M39 0.559082H11C5.20101 0.559082 0.5 5.31064 0.5 11.172V39.4731C0.5 45.3344 5.20101 50.086 11 50.086H39C44.799 50.086 49.5 45.3344 49.5 39.4731V11.172C49.5 5.31064 44.799 0.559082 39 0.559082Z" fill="url(#paint2_radial_3596_1225)"/>
<path d="M37.25 15.5941C37.25 17.0594 36.0747 18.2474 34.625 18.2474C33.1753 18.2474 32 17.0594 32 15.5941C32 14.1288 33.1753 12.9409 34.625 12.9409C36.0747 12.9409 37.25 14.1288 37.25 15.5941Z" fill="white"/>
<path fill-rule="evenodd" clip-rule="evenodd" d="M25 34.1667C29.8324 34.1667 33.75 30.207 33.75 25.3226C33.75 20.4382 29.8324 16.4785 25 16.4785C20.1676 16.4785 16.25 20.4382 16.25 25.3226C16.25 30.207 20.1676 34.1667 25 34.1667ZM25 30.6291C27.8996 30.6291 30.25 28.2534 30.25 25.3226C30.25 22.3918 27.8996 20.0161 25 20.0161C22.1004 20.0161 19.75 22.3918 19.75 25.3226C19.75 28.2534 22.1004 30.6291 25 30.6291Z" fill="white"/>
<path fill-rule="evenodd" clip-rule="evenodd" d="M7.5 24.6149C7.5 18.6712 7.5 15.6992 8.64443 13.429C9.6511 11.4321 11.2574 9.80851 13.2331 8.79101C15.4791 7.63428 18.4195 7.63428 24.3 7.63428H25.7C31.5805 7.63428 34.5209 7.63428 36.7668 8.79101C38.7426 9.80851 40.3489 11.4321 41.3555 13.429C42.5 15.6992 42.5 18.6712 42.5 24.6149V26.03C42.5 31.9737 42.5 34.9457 41.3555 37.2158C40.3489 39.2128 38.7426 40.8364 36.7668 41.8538C34.5209 43.0106 31.5805 43.0106 25.7 43.0106H24.3C18.4195 43.0106 15.4791 43.0106 13.2331 41.8538C11.2574 40.8364 9.6511 39.2128 8.64443 37.2158C7.5 34.9457 7.5 31.9737 7.5 26.03V24.6149ZM24.3 11.1719H25.7C28.6981 11.1719 30.736 11.1747 32.3113 11.3047C33.8459 11.4315 34.6306 11.6611 35.178 11.9431C36.4951 12.6214 37.5659 13.7038 38.237 15.035C38.5159 15.5883 38.7433 16.3814 38.8686 17.9325C38.9972 19.5248 39 21.5846 39 24.6149V26.03C39 29.0603 38.9972 31.1201 38.8686 32.7124C38.7433 34.2635 38.5159 35.0566 38.237 35.6099C37.5659 36.9411 36.4951 38.0234 35.178 38.7018C34.6306 38.9837 33.8459 39.2135 32.3113 39.3401C30.736 39.4702 28.6981 39.473 25.7 39.473H24.3C21.3019 39.473 19.264 39.4702 17.6887 39.3401C16.1541 39.2135 15.3694 38.9837 14.822 38.7018C13.5049 38.0234 12.4341 36.9411 11.7629 35.6099C11.484 35.0566 11.2568 34.2635 11.1314 32.7124C11.0027 31.1201 11 29.0603 11 26.03V24.6149C11 21.5846 11.0027 19.5248 11.1314 17.9325C11.2568 16.3814 11.484 15.5883 11.7629 15.035C12.4341 13.7038 13.5049 12.6214 14.822 11.9431C15.3694 11.6611 16.1541 11.4315 17.6887 11.3047C19.264 11.1747 21.3019 11.1719 24.3 11.1719Z" fill="white"/>
<defs>
<radialGradient id="paint0_radial_3596_1225" cx="0" cy="0" r="1" gradientUnits="userSpaceOnUse" gradientTransform="translate(18 37.7042) rotate(-55.6618) scale(44.985 44.8127)">
<stop stop-color="#B13589"/>
<stop offset="0.79309" stop-color="#C62F94"/>
<stop offset="1" stop-color="#8A3AC8"/>
</radialGradient>
<radialGradient id="paint1_radial_3596_1225" cx="0" cy="0" r="1" gradientUnits="userSpaceOnUse" gradientTransform="translate(16.25 51.8548) rotate(-65.3693) scale(39.8902 39.614)">
<stop stop-color="#E0E8B7"/>
<stop offset="0.444662" stop-color="#FB8A2E"/>
<stop offset="0.71474" stop-color="#E2425C"/>
<stop offset="1" stop-color="#E2425C" stop-opacity="0"/>
</radialGradient>
<radialGradient id="paint2_radial_3596_1225" cx="0" cy="0" r="1" gradientUnits="userSpaceOnUse" gradientTransform="translate(-2.125 2.3279) rotate(-8.21633) scale(68.0738 14.7105)">
<stop offset="0.156701" stop-color="#406ADC"/>
<stop offset="0.467799" stop-color="#6A45BE"/>
<stop offset="1" stop-color="#6A45BE" stop-opacity="0"/>
</radialGradient>
</defs>
</svg>
