<svg width="48" height="49" viewBox="0 0 48 49" fill="none" xmlns="http://www.w3.org/2000/svg">
<rect x="2.66699" y="2.75977" width="42.6667" height="44.2036" fill="#D9D9D9"/>
<path d="M40.9 41.4043H33.788V30.1445C33.788 27.4599 33.74 24.0032 30.088 24.0032C26.384 24.0032 25.816 26.9303 25.816 29.9464V41.4043H18.704V18.25H25.532V21.4157H25.628C27.02 19.0141 29.612 17.5748 32.364 17.6759C39.572 17.6759 40.904 22.4668 40.904 28.7052L40.9 41.4003V41.4043ZM10.68 15.0843C9.5875 15.079 8.54117 14.6382 7.76827 13.8578C6.99537 13.0773 6.55831 12.0202 6.552 10.916C6.552 8.62761 8.416 6.74357 10.68 6.74357C12.944 6.74357 14.804 8.62761 14.808 10.916C14.808 13.2043 12.944 15.0843 10.68 15.0843ZM14.236 41.4043H7.116V18.25H14.236V41.4043ZM44.44 0.0645132H3.54C2.6126 0.0590688 1.72055 0.423774 1.05769 1.07937C0.394836 1.73497 0.0147387 2.62849 0 3.56576V45.0794C0.0147387 46.0167 0.394836 46.9102 1.05769 47.5658C1.72055 48.2214 2.6126 48.5861 3.54 48.5806H44.444C45.3735 48.5883 46.2685 48.2248 46.9343 47.5691C47.6002 46.9135 47.9832 46.0188 48 45.0794V3.56172C47.9832 2.62304 47.5999 1.72914 46.9338 1.07482C46.2678 0.420495 45.3728 0.0588 44.444 0.0685559L44.44 0.0645132Z" fill="#0A66C2"/>
</svg>
