<svg width="48" height="49" viewBox="0 0 48 49" fill="none" xmlns="http://www.w3.org/2000/svg">
<g clip-path="url(#clip0_3536_2954)">
<path d="M48 7.34185L48 41.3031C48 45.3224 44.7765 48.5806 40.8 48.5806L7.2 48.5806C3.22355 48.5806 0 45.3224 0 41.3031L0 7.34185C0 3.32265 3.22355 0.0644379 7.2 0.0644379L40.8 0.0644379C44.7765 0.0644379 48 3.32265 48 7.34185Z" fill="#25D366"/>
<path d="M11.1565 36.9253L17.2502 35.5987C19.911 37.3038 23.0959 37.969 26.2074 37.4694C29.3188 36.9698 32.143 35.3399 34.1501 32.8853C36.1572 30.4308 37.2091 27.3204 37.1086 24.1376C37.0082 20.9549 35.7621 17.9186 33.6043 15.5984C31.4466 13.2782 28.5253 11.8335 25.3886 11.5355C22.252 11.2374 19.1155 12.1065 16.5677 13.9796C14.0199 15.8526 12.2359 18.601 11.5503 21.7091C10.8647 24.8171 11.3247 28.0712 12.844 30.8608L11.1565 36.9253Z" fill="#25D366" stroke="white" stroke-width="2.5"/>
<path d="M22.106 21.0165C22.2542 21.2431 22.3283 21.4696 22.0319 21.6962L20.8464 22.6023C20.6982 22.8288 20.6241 22.9799 20.7723 23.2819C21.3651 24.4146 22.0319 26.0004 24.2548 27.3596C24.5512 27.4351 24.6994 27.2841 24.8476 27.1331L25.885 26.4534C26.0332 26.3024 26.1814 26.3779 26.3295 26.4534L28.4784 27.3596C29.0711 27.5861 28.997 27.8127 28.997 28.0392V28.6433C28.997 28.7943 28.9229 29.0964 28.6266 29.3984C26.9964 31.0597 24.6994 30.3801 23.2175 29.1719C22.9211 28.9454 20.2536 27.4351 18.8458 24.1881C17.8084 21.7717 17.9566 21.2431 18.1048 20.5635C18.1789 19.7328 18.8458 18.9022 19.5126 18.5246C19.7349 18.4491 20.6982 18.0716 20.8464 18.3736" fill="white"/>
</g>
<defs>
<clipPath id="clip0_3536_2954">
<rect width="48.5161" height="48" fill="white" transform="matrix(0 -1 -1 0 48 48.5806)"/>
</clipPath>
</defs>
</svg>
